<?xml version="1.0" encoding="utf-8"?>
<!-- Generator: Adobe Illustrator 23.0.3, SVG Export Plug-In . SVG Version: 6.00 Build 0)  -->
<svg version="1.1" id="Слой_1" xmlns="http://www.w3.org/2000/svg" xmlns:xlink="http://www.w3.org/1999/xlink" x="0px" y="0px"
	 viewBox="0 0 22 22" style="enable-background:new 0 0 22 22;" xml:space="preserve">
<style type="text/css">
	.st0{fill:none;}
</style>
<title>Ресурс 1225</title>
<g>
	<g id="Слой_1-2">
		<rect id="canvas_background" class="st0" width="22" height="22"/>
		<path d="M18.6,2.2c0.2,0,0.3,0,0.5,0.1c0.1,0.1,0.3,0.2,0.4,0.3c0.1,0.1,0.2,0.3,0.3,0.4c0.1,0.2,0.1,0.3,0.1,0.5v16.4H4.4
			l-2.3-2.3V3.4c0-0.2,0-0.3,0.1-0.5c0.1-0.1,0.2-0.3,0.3-0.4c0.1-0.1,0.3-0.2,0.4-0.3c0.2-0.1,0.3-0.1,0.5-0.1H18.6z M18.6,3.4
			h-1.3V11H4.7V3.4H3.4V17l1.5,1.5h1v-5h8.9v5h3.8L18.6,3.4z M5.9,9.7h10.1V3.4H5.9V9.7z M13.5,14.7H7.2v3.8h1.3v-2.5h1.3v2.5h3.8
			L13.5,14.7z"/>
	</g>
</g>
</svg>
