<?xml version="1.0" encoding="utf-8"?>
<!-- Generator: Adobe Illustrator 23.0.3, SVG Export Plug-In . SVG Version: 6.00 Build 0)  -->
<svg version="1.1" id="Слой_1" xmlns="http://www.w3.org/2000/svg" xmlns:xlink="http://www.w3.org/1999/xlink" x="0px" y="0px"
	 viewBox="0 0 22 22" style="enable-background:new 0 0 22 22;" xml:space="preserve">
<style type="text/css">
	.st0{fill:none;}
</style>
<title>Ресурс 1228</title>
<g>
	<g id="Слой_1-2">
		<rect id="canvas_background" class="st0" width="22" height="22"/>
		<path d="M19.2,4.7H18v14.5c0,0.3,0,0.5-0.1,0.7c-0.1,0.2-0.2,0.4-0.4,0.6c-0.2,0.2-0.4,0.3-0.6,0.4c-0.2,0.1-0.5,0.2-0.7,0.1H5.9
			c-0.3,0-0.5,0-0.7-0.1c-0.2-0.1-0.4-0.2-0.6-0.4c-0.2-0.2-0.3-0.4-0.4-0.6C4.1,19.8,4,19.5,4,19.2V4.7H2.8V3.4h5.1V2.1
			c0-0.2,0-0.3,0.1-0.5C8,1.5,8.1,1.4,8.2,1.3C8.3,1.1,8.5,1.1,8.6,1c0.2-0.1,0.3-0.1,0.5-0.1h3.8c0.2,0,0.3,0,0.5,0.1
			c0.2,0.1,0.3,0.2,0.4,0.3c0.1,0.1,0.2,0.2,0.3,0.4c0.1,0.2,0.1,0.3,0.1,0.5v1.3h5.1L19.2,4.7z M16.7,4.7H5.3v14.5
			c0,0.2,0.1,0.3,0.2,0.5c0.1,0.1,0.3,0.2,0.4,0.2h10.1c0.2,0,0.3-0.1,0.5-0.2c0.1-0.1,0.2-0.3,0.2-0.5L16.7,4.7z M9.1,17.3H7.8V7.2
			h1.3V17.3z M9.1,3.4h3.8V2.1H9.1V3.4z M11.6,17.3h-1.3V7.2h1.3V17.3z M14.2,17.3h-1.3V7.2h1.3V17.3z"/>
	</g>
</g>
</svg>
