<?xml version="1.0" encoding="utf-8"?>
<!-- Generator: Adobe Illustrator 23.0.3, SVG Export Plug-In . SVG Version: 6.00 Build 0)  -->
<svg version="1.1" id="Слой_1" xmlns="http://www.w3.org/2000/svg" xmlns:xlink="http://www.w3.org/1999/xlink" x="0px" y="0px"
	 viewBox="0 0 22 22" style="enable-background:new 0 0 22 22;" xml:space="preserve">
<style type="text/css">
	.st0{fill:none;}
</style>
<title>Ресурс 1227</title>
<g>
	<g id="Слой_1-2">
		<rect id="canvas_background" class="st0" width="22" height="22"/>
		<path d="M21.1,4.2c0,0.4-0.1,0.9-0.3,1.3c-0.2,0.4-0.4,0.8-0.7,1.1l-13,13l-6.2,1.5l1.6-6.2l13-13c0.3-0.3,0.7-0.5,1.1-0.7
			c0.4-0.1,0.8-0.2,1.2-0.2c0.4,0,0.9,0.1,1.3,0.3c0.4,0.2,0.7,0.4,1,0.7c0.3,0.3,0.5,0.6,0.7,1C21,3.3,21.1,3.8,21.1,4.2z
			 M2.7,19.4l3.2-0.8c-0.3-1.2-1.2-2.2-2.4-2.4L2.7,19.4z M4.1,15c0.7,0.2,1.3,0.6,1.8,1.1c0.5,0.5,0.9,1.1,1.1,1.8L17.7,7.2
			l-2.9-2.9L4.1,15z M18.6,6.3L19,5.9c0.1-0.1,0.3-0.3,0.4-0.5c0.1-0.2,0.2-0.3,0.3-0.5c0.1-0.2,0.1-0.4,0.1-0.7
			c0-0.3-0.1-0.5-0.2-0.8c-0.1-0.2-0.3-0.5-0.4-0.7c-0.2-0.2-0.4-0.3-0.6-0.4c-0.5-0.2-1-0.2-1.5-0.1c-0.2,0.1-0.4,0.2-0.5,0.3
			c-0.2,0.1-0.3,0.3-0.5,0.4c-0.1,0.2-0.3,0.3-0.5,0.5L18.6,6.3z"/>
	</g>
</g>
</svg>
