<?xml version="1.0" encoding="utf-8"?>
<!-- Generator: Adobe Illustrator 23.0.3, SVG Export Plug-In . SVG Version: 6.00 Build 0)  -->
<svg version="1.1" id="Слой_1" xmlns="http://www.w3.org/2000/svg" xmlns:xlink="http://www.w3.org/1999/xlink" x="0px" y="0px"
	 viewBox="0 0 22 22" style="enable-background:new 0 0 22 22;" xml:space="preserve">
<style type="text/css">
	.st0{fill:none;}
</style>
<title>Ресурс 1221</title>
<g>
	<g id="Слой_1-2">
		<rect id="canvas_background" class="st0" width="22" height="22"/>
		<polygon points="19.8,8.5 19.8,2.2 13.5,2.2 13.5,3.5 17.6,3.5 11,10.1 4.3,3.5 8.5,3.5 8.5,2.2 2.2,2.2 2.2,8.5 3.5,8.5 3.5,4.3 
			10.1,11 3.5,17.6 3.5,13.5 2.2,13.5 2.2,19.8 8.5,19.8 8.5,18.5 4.3,18.5 11,11.9 17.6,18.5 13.5,18.5 13.5,19.8 19.8,19.8 
			19.8,13.5 18.5,13.5 18.5,17.6 11.9,11 18.5,4.3 18.5,8.5 		"/>
	</g>
</g>
</svg>
