<?xml version="1.0" encoding="utf-8"?>
<!-- Generator: Adobe Illustrator 23.0.3, SVG Export Plug-In . SVG Version: 6.00 Build 0)  -->
<svg version="1.1" id="Слой_1" xmlns="http://www.w3.org/2000/svg" xmlns:xlink="http://www.w3.org/1999/xlink" x="0px" y="0px"
	 viewBox="0 0 22 22" style="enable-background:new 0 0 22 22;" xml:space="preserve">
<style type="text/css">
	.st0{fill:none;}
</style>
<title>Ресурс 1204</title>
<g>
	<g id="Слой_1-2">
		<rect id="canvas_background" class="st0" width="22" height="22"/>
		<path d="M1.2,8.3c0.2-0.8,0.6-1.7,1-2.4c0.9-1.5,2.1-2.8,3.6-3.6c0.8-0.4,1.6-0.8,2.4-1C9.2,1,10.1,0.9,11,0.9
			c0.9,0,1.8,0.1,2.7,0.4c0.8,0.2,1.7,0.6,2.4,1c1.5,0.9,2.8,2.1,3.6,3.6c0.4,0.8,0.8,1.6,1,2.4c0.3,0.9,0.4,1.8,0.4,2.7
			c0,1.1-0.2,2.2-0.5,3.3c-0.4,1-0.9,2-1.5,2.9c-0.7,0.9-1.5,1.6-2.4,2.2c-0.9,0.6-1.9,1.1-3,1.4l-0.3-1.2c0.9-0.3,1.8-0.7,2.6-1.2
			c0.8-0.5,1.4-1.2,2-1.9c0.6-0.8,1-1.6,1.3-2.5c0.3-0.9,0.5-1.9,0.5-2.9c0-0.8-0.1-1.6-0.3-2.4c-0.4-1.5-1.2-2.8-2.3-3.9
			c-1.1-1.1-2.4-1.9-3.9-2.3C11.8,2,10.2,2,8.7,2.5C7.9,2.7,7.2,3,6.5,3.4C5.9,3.7,5.3,4.2,4.7,4.7c-0.5,0.5-1,1.1-1.4,1.8
			C3,7.2,2.7,7.9,2.5,8.6C2.3,9.4,2.1,10.2,2.2,11c0,0.8,0.1,1.7,0.3,2.5c0.2,0.8,0.6,1.5,1,2.3c0.4,0.7,1,1.3,1.6,1.9
			c0.6,0.6,1.3,1,2.1,1.4v-2.9h1.3v5.1H3.4v-1.3h2.7c-0.8-0.4-1.5-1-2.2-1.6c-0.6-0.6-1.2-1.3-1.6-2.1c-0.4-0.8-0.8-1.6-1-2.4
			C1,12.8,0.9,11.9,0.9,11C0.9,10.1,1,9.2,1.2,8.3z M12,8.7c0.6,0.3,1.1,0.7,1.3,1.3c0.3,0.6,0.3,1.4,0,2c-0.3,0.6-0.7,1.1-1.3,1.3
			c-0.6,0.3-1.4,0.3-2,0c-0.6-0.3-1.1-0.7-1.3-1.3c-0.3-0.6-0.3-1.4,0-2C8.9,9.4,9.4,8.9,10,8.7C10.6,8.4,11.4,8.4,12,8.7z
			 M11.5,12.2c0.3-0.1,0.5-0.4,0.7-0.7c0.1-0.3,0.1-0.7,0-1c-0.1-0.3-0.4-0.5-0.7-0.7c-0.3-0.1-0.7-0.1-1,0
			c-0.3,0.1-0.5,0.4-0.7,0.7c-0.1,0.3-0.1,0.7,0,1c0.1,0.3,0.4,0.5,0.7,0.7C10.8,12.3,11.2,12.3,11.5,12.2z"/>
	</g>
</g>
</svg>
