<?xml version="1.0" encoding="utf-8"?>
<!-- Generator: Adobe Illustrator 23.0.3, SVG Export Plug-In . SVG Version: 6.00 Build 0)  -->
<svg version="1.1" id="Слой_1" xmlns="http://www.w3.org/2000/svg" xmlns:xlink="http://www.w3.org/1999/xlink" x="0px" y="0px"
	 viewBox="0 0 22 22" style="enable-background:new 0 0 22 22;" xml:space="preserve">
<style type="text/css">
	.st0{fill:none;}
</style>
<title>Ресурс 1226</title>
<g>
	<g id="Слой_1-2">
		<rect id="canvas_background" class="st0" width="22" height="22"/>
		<path d="M19.9,8.5c0.2,0,0.3,0,0.5,0.1c0.1,0.1,0.3,0.2,0.4,0.3c0.2,0.2,0.4,0.6,0.4,0.9v8.8h-5.1v2.5H5.9v-2.5H0.9V9.7
			c0-0.2,0-0.3,0.1-0.5C1.1,9.1,1.2,9,1.3,8.8c0.1-0.1,0.3-0.2,0.4-0.3C1.8,8.5,2,8.5,2.2,8.5h3.8V0.9h10.1v7.6H19.9z M19.9,9.7H2.2
			v7.6h3.8v-3.8h10.1v3.8h3.8L19.9,9.7z M4.1,11c0.2,0,0.3,0.1,0.4,0.2c0.1,0.1,0.2,0.3,0.2,0.4c0,0.2-0.1,0.3-0.2,0.4
			c-0.1,0.1-0.3,0.2-0.4,0.2c-0.3,0-0.6-0.3-0.6-0.6c0,0,0,0,0,0c0-0.2,0.1-0.3,0.2-0.4C3.7,11.1,3.9,11,4.1,11z M7.2,8.5h7.6V2.2
			H7.2V8.5z M14.8,14.8H7.2v5.1h7.6V14.8z"/>
	</g>
</g>
</svg>
