<?xml version="1.0" encoding="utf-8"?>
<!-- Generator: Adobe Illustrator 23.0.3, SVG Export Plug-In . SVG Version: 6.00 Build 0)  -->
<svg version="1.1" id="Слой_1" xmlns="http://www.w3.org/2000/svg" xmlns:xlink="http://www.w3.org/1999/xlink" x="0px" y="0px"
	 viewBox="0 0 22 22" style="enable-background:new 0 0 22 22;" xml:space="preserve">
<style type="text/css">
	.st0{fill:none;}
</style>
<title>Ресурс 1218</title>
<g>
	<g id="Слой_1-2">
		<rect id="canvas_background" class="st0" width="22" height="22"/>
		<path d="M16.7,2.7c0.9,0.6,1.7,1.4,2.4,2.2c0.7,0.9,1.2,1.8,1.5,2.9c0.4,1,0.5,2.2,0.5,3.3c0,0.9-0.1,1.8-0.4,2.7
			c-0.2,0.8-0.6,1.7-1,2.4c-0.9,1.5-2.1,2.8-3.6,3.6c-0.8,0.4-1.6,0.8-2.4,1c-1.8,0.5-3.6,0.5-5.4,0c-0.8-0.2-1.7-0.6-2.4-1
			c-1.5-0.9-2.8-2.1-3.6-3.6c-0.4-0.8-0.8-1.6-1-2.4C1,12.8,0.9,11.9,0.9,11c0-0.9,0.1-1.8,0.4-2.7c0.2-0.9,0.6-1.7,1-2.4
			c0.5-0.8,1-1.5,1.7-2.1c0.7-0.6,1.4-1.2,2.2-1.6H3.4V0.9h5.1v5.1H7.2V3C6.4,3.4,5.7,3.8,5.1,4.4C4.5,4.9,4,5.6,3.5,6.3
			C3.1,7,2.8,7.7,2.5,8.5C2.3,9.3,2.2,10.2,2.2,11c0,1.6,0.4,3.1,1.2,4.5c0.8,1.3,1.9,2.4,3.2,3.2c0.7,0.4,1.4,0.7,2.1,0.9
			c0.8,0.2,1.6,0.3,2.4,0.3c1.6,0,3.1-0.4,4.5-1.2c1.3-0.8,2.4-1.9,3.2-3.2c0.4-0.7,0.7-1.4,0.9-2.1c0.2-0.8,0.3-1.6,0.3-2.3
			c0-1-0.2-1.9-0.5-2.9c-0.3-0.9-0.8-1.7-1.4-2.5c-0.6-0.8-1.2-1.4-2-2c-0.8-0.6-1.7-1-2.6-1.2l0.3-1.2C14.8,1.6,15.8,2,16.7,2.7z"
			/>
	</g>
</g>
</svg>
