<?xml version="1.0" encoding="utf-8"?>
<!-- Generator: Adobe Illustrator 23.0.3, SVG Export Plug-In . SVG Version: 6.00 Build 0)  -->
<svg version="1.1" id="Слой_1" xmlns="http://www.w3.org/2000/svg" xmlns:xlink="http://www.w3.org/1999/xlink" x="0px" y="0px"
	 viewBox="0 0 22 22" style="enable-background:new 0 0 22 22;" xml:space="preserve">
<style type="text/css">
	.st0{fill:none;}
</style>
<title>Ресурс 1205</title>
<g>
	<g id="Слой_1-2">
		<rect id="canvas_background" class="st0" width="22" height="22"/>
		<path d="M21.1,11c0,0.9-0.1,1.8-0.4,2.7c-0.2,0.9-0.6,1.7-1,2.5c-0.5,0.8-1,1.5-1.6,2.1c-0.6,0.6-1.4,1.2-2.2,1.6h2.7v1.3h-5.1
			v-5.1h1.3V19c0.8-0.4,1.5-0.8,2.1-1.4c0.6-0.5,1.2-1.2,1.6-1.9c0.4-0.7,0.8-1.5,1-2.3c0.2-0.8,0.4-1.6,0.4-2.5
			c0-0.8-0.1-1.6-0.3-2.4c-0.2-0.7-0.5-1.5-0.9-2.1c-0.4-0.7-0.8-1.3-1.4-1.8c-0.5-0.5-1.1-1-1.8-1.4c-0.7-0.4-1.4-0.7-2.1-0.9
			C11.8,2,10.2,2,8.7,2.5C7.2,2.9,5.8,3.7,4.8,4.8C3.7,5.8,2.9,7.2,2.5,8.6C2.3,9.4,2.1,10.2,2.2,11c0,1,0.2,1.9,0.5,2.9
			C3,14.8,3.4,15.6,4,16.4c0.6,0.8,1.2,1.4,2,2c0.8,0.6,1.7,1,2.6,1.2l-0.3,1.2c-1.1-0.3-2.1-0.8-3-1.4C4.4,18.7,3.6,18,3,17.1
			c-0.7-0.9-1.2-1.8-1.5-2.9c-0.4-1-0.6-2.2-0.6-3.3c0-0.9,0.1-1.8,0.4-2.7c0.2-0.8,0.6-1.7,1-2.4c0.9-1.5,2.1-2.8,3.6-3.6
			c0.8-0.4,1.6-0.8,2.4-1C9.2,1,10.1,0.9,11,0.9c0.9,0,1.8,0.1,2.7,0.4c0.8,0.2,1.7,0.6,2.4,1c1.5,0.9,2.8,2.1,3.6,3.6
			c0.4,0.8,0.8,1.6,1,2.4C21,9.2,21.1,10.1,21.1,11z M11,8.5c0.3,0,0.7,0.1,1,0.2c0.6,0.3,1.1,0.7,1.3,1.3c0.3,0.6,0.3,1.4,0,2
			c-0.3,0.6-0.7,1.1-1.3,1.3c-0.6,0.3-1.4,0.3-2,0c-0.6-0.3-1.1-0.7-1.3-1.3c-0.3-0.6-0.3-1.4,0-2C8.9,9.4,9.4,8.9,10,8.7
			C10.3,8.5,10.7,8.5,11,8.5z M11,12.3c0.2,0,0.3,0,0.5-0.1c0.3-0.1,0.5-0.4,0.7-0.7c0.1-0.3,0.1-0.7,0-1c-0.1-0.3-0.4-0.5-0.7-0.7
			c-0.3-0.1-0.7-0.1-1,0c-0.3,0.1-0.5,0.4-0.7,0.7c-0.1,0.3-0.1,0.7,0,1c0.1,0.3,0.4,0.5,0.7,0.7C10.7,12.2,10.8,12.3,11,12.3z"/>
	</g>
</g>
</svg>
