<?xml version="1.0" encoding="utf-8"?>
<!-- Generator: Adobe Illustrator 23.0.3, SVG Export Plug-In . SVG Version: 6.00 Build 0)  -->
<svg version="1.1" id="Слой_1" xmlns="http://www.w3.org/2000/svg" xmlns:xlink="http://www.w3.org/1999/xlink" x="0px" y="0px"
	 viewBox="0 0 22 22" style="enable-background:new 0 0 22 22;" xml:space="preserve">
<style type="text/css">
	.st0{fill:none;}
</style>
<title>Ресурс 1208</title>
<g>
	<g id="Слой_1-2">
		<rect id="canvas_background" class="st0" width="22" height="22"/>
		<path d="M11,4.7c0.9,0,1.9,0.1,2.8,0.3c0.9,0.2,1.8,0.6,2.6,1c0.8,0.4,1.6,1,2.2,1.7c0.7,0.7,1.2,1.5,1.6,2.3
			c0.3,0.5,0.5,1.1,0.6,1.7c0.1,0.6,0.2,1.2,0.2,1.8h-1.3c0-0.7-0.1-1.5-0.4-2.2c-0.2-0.7-0.6-1.3-1-1.9c-0.4-0.5-0.9-1-1.5-1.4
			c-0.6-0.4-1.2-0.8-1.8-1.1c-0.7-0.3-1.4-0.5-2.1-0.7c-1.4-0.3-2.9-0.3-4.3,0C8.1,6.3,7.4,6.6,6.8,6.9C6.1,7.2,5.5,7.6,5,8
			C4.4,8.4,3.9,8.9,3.5,9.5c-0.4,0.6-0.8,1.2-1,1.9c-0.2,0.7-0.4,1.4-0.4,2.2H0.9c0-0.6,0.1-1.2,0.2-1.8c0.1-0.6,0.3-1.2,0.6-1.7
			c0.4-0.9,1-1.6,1.6-2.3C4,7.1,4.7,6.5,5.6,6.1C6.4,5.6,7.3,5.2,8.2,5C9.1,4.8,10.1,4.7,11,4.7z M11,9.7c0.5,0,1,0.1,1.5,0.3
			c0.9,0.4,1.6,1.1,2,2c0.4,0.9,0.4,2,0,2.9c-0.2,0.5-0.5,0.9-0.8,1.2c-0.3,0.4-0.8,0.6-1.2,0.8c-1,0.4-2,0.4-3,0
			c-0.9-0.4-1.6-1.1-2-2c-0.4-0.9-0.4-2,0-2.9c0.2-0.5,0.5-0.9,0.8-1.2C8.6,10.5,9,10.2,9.5,10C10,9.8,10.5,9.7,11,9.7z M11,16.1
			c0.3,0,0.7-0.1,1-0.2c0.6-0.3,1.1-0.7,1.4-1.4c0.1-0.3,0.2-0.7,0.2-1c0-0.3-0.1-0.7-0.2-1c-0.3-0.6-0.7-1.1-1.4-1.3
			c-0.3-0.1-0.7-0.2-1-0.2c-0.3,0-0.7,0.1-1,0.2c-0.6,0.3-1.1,0.7-1.4,1.4c-0.1,0.3-0.2,0.7-0.2,1c0,0.3,0.1,0.7,0.2,1
			c0.3,0.6,0.7,1.1,1.4,1.3C10.3,16,10.7,16.1,11,16.1z"/>
	</g>
</g>
</svg>
