<?xml version="1.0" encoding="utf-8"?>
<!-- Generator: Adobe Illustrator 23.0.3, SVG Export Plug-In . SVG Version: 6.00 Build 0)  -->
<svg version="1.1" id="Слой_1" xmlns="http://www.w3.org/2000/svg" xmlns:xlink="http://www.w3.org/1999/xlink" x="0px" y="0px"
	 viewBox="0 0 22 22" style="enable-background:new 0 0 22 22;" xml:space="preserve">
<style type="text/css">
	.st0{fill:none;}
</style>
<title>Ресурс 1223</title>
<g>
	<g id="Слой_1-2">
		<rect id="canvas_background" class="st0" width="22" height="22"/>
		<path d="M21.1,3.4v15.2H0.9V3.4H21.1z M2.1,4.7v6.7L6.6,7l6.3,6.3l2.5-2.5l4.4,4.4V4.7L2.1,4.7z M2.1,17.3h13L6.6,8.7l-4.4,4.4
			L2.1,17.3z M19.8,17.3V17l-4.4-4.4l-1.6,1.6l3.2,3.1H19.8z M16.7,8.5c-0.2,0-0.3-0.1-0.5-0.2c-0.1-0.1-0.2-0.3-0.2-0.4
			c0-0.3,0.3-0.6,0.6-0.6c0,0,0,0,0,0c0.2,0,0.3,0.1,0.4,0.2c0.1,0.1,0.2,0.3,0.2,0.4C17.3,8.2,17,8.5,16.7,8.5z"/>
	</g>
</g>
</svg>
