<?xml version="1.0" encoding="utf-8"?>
<!-- Generator: Adobe Illustrator 23.0.3, SVG Export Plug-In . SVG Version: 6.00 Build 0)  -->
<svg version="1.1" id="Слой_1" xmlns="http://www.w3.org/2000/svg" xmlns:xlink="http://www.w3.org/1999/xlink" x="0px" y="0px"
	 viewBox="0 0 22 22" style="enable-background:new 0 0 22 22;" xml:space="preserve">
<style type="text/css">
	.st0{fill:none;}
</style>
<title>Ресурс 1210</title>
<g>
	<g id="Слой_1-2">
		<path d="M20.9,20c0.1,0.1,0.2,0.3,0.2,0.5c0,0.3-0.3,0.6-0.6,0.6c-0.2,0-0.3-0.1-0.5-0.2l-7.8-7.8c-0.6,0.5-1.3,0.9-2.1,1.2
			c-0.8,0.3-1.6,0.4-2.4,0.4c-0.6,0-1.2-0.1-1.8-0.2c-0.6-0.2-1.1-0.4-1.7-0.7c-0.5-0.3-1-0.7-1.4-1.1c-0.9-0.8-1.5-1.9-1.8-3.1
			C0.8,8.5,0.8,7.2,1.1,6c0.2-0.6,0.4-1.1,0.7-1.7c0.6-1,1.5-1.9,2.5-2.5C4.9,1.5,5.4,1.3,6,1.1c1.2-0.3,2.5-0.3,3.7,0
			c1.2,0.3,2.2,0.9,3.1,1.8c0.4,0.4,0.8,0.9,1.1,1.4c0.3,0.5,0.5,1.1,0.7,1.7c0.2,0.6,0.2,1.2,0.2,1.8c0,0.8-0.1,1.6-0.4,2.4
			c-0.3,0.8-0.7,1.5-1.2,2.1L20.9,20z M7.8,13.5c0.8,0,1.5-0.1,2.2-0.4c1.3-0.6,2.4-1.7,3-3c0.6-1.4,0.6-3,0-4.4
			c-0.3-0.7-0.7-1.3-1.2-1.8c-2.2-2.2-5.8-2.2-8,0c0,0,0,0,0,0C3.3,4.4,2.9,5,2.6,5.6C2,7,2,8.6,2.6,10c0.3,0.7,0.7,1.3,1.2,1.8
			c0.5,0.5,1.1,0.9,1.8,1.2C6.3,13.4,7.1,13.5,7.8,13.5z M11,8.5H4.7V7.2H11"/>
		<rect id="canvas_background" class="st0" width="22" height="22"/>
	</g>
</g>
</svg>
