<?xml version="1.0" encoding="utf-8"?>
<!-- Generator: Adobe Illustrator 23.0.3, SVG Export Plug-In . SVG Version: 6.00 Build 0)  -->
<svg version="1.1" id="Слой_1" xmlns="http://www.w3.org/2000/svg" xmlns:xlink="http://www.w3.org/1999/xlink" x="0px" y="0px"
	 viewBox="0 0 22 22" style="enable-background:new 0 0 22 22;" xml:space="preserve">
<style type="text/css">
	.st0{fill:none;}
</style>
<title>Ресурс 1216</title>
<g>
	<g id="Слой_1-2">
		<rect id="canvas_background" class="st0" width="22" height="22"/>
		<path d="M18.6,9.7v11.4H3.4V9.7h2.5V6c0-0.7,0.1-1.4,0.4-2c0.2-0.6,0.6-1.1,1.1-1.6c0.5-0.5,1-0.8,1.6-1.1c1.3-0.5,2.7-0.5,4,0
			c0.6,0.3,1.1,0.6,1.6,1.1c0.5,0.5,0.8,1,1.1,1.6c0.3,0.6,0.4,1.3,0.4,2v3.7L18.6,9.7z M17.3,11H4.7v8.9h12.6V11z M7.2,9.7h7.6V6
			c0-0.5-0.1-1-0.3-1.5c-0.4-0.9-1.1-1.7-2-2.1c-1-0.4-2-0.4-3,0c-0.9,0.4-1.6,1.2-2,2.1C7.3,5,7.2,5.5,7.2,6V9.7L7.2,9.7z"/>
	</g>
</g>
</svg>
